<?xml version="1.0" encoding="iso-8859-1"?>
<!-- Generator: Adobe Illustrator 22.0.1, SVG Export Plug-In . SVG Version: 6.00 Build 0)  -->
<svg version="1.1" xmlns="http://www.w3.org/2000/svg" xmlns:xlink="http://www.w3.org/1999/xlink" x="0px" y="0px"
	 viewBox="0 0 640 640" style="enable-background:new 0 0 640 640;" xml:space="preserve">
<g>
	<g>
		<g>
			<path style="fill:#FFFFFF;" d="M151,31.857c16.542,0,30,13.458,30,30v517.286c0,16.542-13.458,30-30,30H51
				c-16.542,0-30-13.458-30-30V61.857c0-16.542,13.458-30,30-30H151 M151,11.857H51c-27.614,0-50,22.386-50,50v517.286
				c0,27.614,22.386,50,50,50h100c27.614,0,50-22.386,50-50V61.857C201,34.243,178.614,11.857,151,11.857L151,11.857z"/>
		</g>
		<path style="fill:#55ACEE;" d="M589,289H299c-27.614,0-50,22.386-50,50v240.143c0,27.614,22.386,50,50,50h290
			c27.614,0,50-22.386,50-50V339C639,311.386,616.614,289,589,289z M529.429,473.667c0,2.621-2.125,4.746-4.746,4.746h-61.698
			v61.698c0,2.621-2.125,4.746-4.746,4.746h-28.476c-2.621,0-4.746-2.125-4.746-4.746v-61.698h-61.698
			c-2.621,0-4.746-2.125-4.746-4.746V445.19c0-2.621,2.125-4.746,4.746-4.746h61.698v-61.698c0-2.621,2.125-4.746,4.746-4.746
			h28.476c2.621,0,4.746,2.125,4.746,4.746v61.698h61.698c2.621,0,4.746,2.125,4.746,4.746V473.667z"/>
		<g>
			<path style="fill:#FFFFFF;" d="M589,31.857c16.542,0,30,13.458,30,30V188c0,16.542-13.458,30-30,30H299
				c-16.542,0-30-13.458-30-30V61.857c0-16.542,13.458-30,30-30H589 M589,11.857H299c-27.614,0-50,22.386-50,50V188
				c0,27.614,22.386,50,50,50h290c27.614,0,50-22.386,50-50V61.857C639,34.243,616.614,11.857,589,11.857L589,11.857z"/>
		</g>
	</g>
</g>
</svg>
